<svg width="800" height="800" viewBox="0 0 960 960" fill="none" xmlns="http://www.w3.org/2000/svg"><path d="M462.845 238.751c145.427-179.69 405.347 76.023 200.222 215.081 41.857 66.349 118.743 223.222 31.023 279.261-86.923 52.093-187.687 97.511-290.944 88.065-78.146-9.049-81.29-97.226-94.929-158.281-7.997-37.847-12.263-76.461-20.967-114.108-185.842 38.888-210.26-171.768-52.522-230.389 2.041-.635 4.334-2.938 5.053-4.979 27.862-92.683 144.835-127.106 223.064-74.65zm-174.049 72.517c23.535-.239 101.743 21.666 78.072 55.657-5.695 6.972-15.091 9.098-23.849 5.26-60.709-38.01-141.817-8.616-162.598 59.838-27.926 98.665 131.398 90.291 160.849 21.27 12.777-25.509 51.166-13.601 44.724 14.758-9.533 26.926-31.634 47.059-55.468 61.768-8.128 4.929-.647 17.859-.073 25.448 12.319 50.052 21.731 100.748 31.915 151.268 1.069 5.416 3.026 7.521 8.946 7.557 104.953 1.301 210.843-27.413 293.825-93.774 16.935-13.812 17.243-13.54 10.911-34.444-7.013-23.154-14.55-46.553-30.771-64.795-10.942-12.305-17.813-26.407-25.674-40.248-1.901-4.836-3.964-6.919-9.601-5.272-25.12 6.207-50.66 6.315-76.165 3.24-30.449-3.606-27.601-46.894 3.54-46.522 93.068 16.952 191.637-63.886 139.928-156.227-35.29-55.147-124.353-75.255-176.28-15.881-14.049 10.559 26.782 35.07 20.61 90.725-1.006 13.11-11.407 22.665-23.441 22.591-14.265.195-24.71-14.122-23.609-28.674-3.811-92.113-145.647-113.575-185.791-33.543zM684.879 638.7c-93.47 69.065-197.995 101.093-313.583 100.668 27.11 87.603 199.842 4.794 255.14-19.583 32.249-15.659 64.449-40.487 58.443-81.085zM99.572 757.195c-25.72.047-30.915-27.22-14.316-41.003 32.209-25.417 60.106-57.976 96.923-76.69 18.251-8.549 35.021 13.281 23.695 29.317-25.776 29.859-59.497 52.386-88.376 79.278-6.07 5.239-12.489 9.32-17.926 9.098zM907.398 446.191c-.411 6.914-5.145 13.448-12.818 17.72-32.526 18.11-65.058 36.216-97.777 53.974-13.837 7.51-25.105 5.638-31.18-4.101-11.603-17.142 14.081-34.523 28.844-42.56 24.836-14.897 49.668-29.812 74.785-44.225 16.222-10.578 39.161-4.318 38.146 19.192zM359.597 150.197c.093 10.919-4.785 18.359-12.7 21.192-7.96 2.849-16.882.522-22.433-6.274-17.219-28.926-29.732-60.713-45.02-90.757-14.661-28.243 25.115-49.24 39.048-20.243 13.627 31.695 30.62 63.415 41.105 96.082zM871.006 775.347c-.105 21.67-25.783 26.58-40.949 14.282-12.542-6.906-25.08-13.821-37.533-20.887-10.884-5.159-20.341-15.727-15.029-28.33 2.851-7.652 10.298-12.732 18.856-12.296 22.914 3.372 42.508 18.769 63.457 28.058 7.585 4 11.226 11.248 11.198 19.173z" fill="#000"/><path d="M734.891 192.242c-45.466-5.678-5.378-52.054 5.922-72.526 16.299-24.149 52.328-.134 36.464 24.404-9.998 12.801-25.878 47.989-42.386 48.122zM328.049 919.198c-18.035-.19-28.901-16.819-21.481-31.711 5.241-10.518 12.414-20.251 19.815-29.458 5.94-7.39 15.556-8.552 23.184-4.737 7.826 3.914 12.991 12.833 10.056 22.032-3.793 11.887-9.049 23.441-14.908 34.484-3.571 6.729-10.853 9.387-16.666 9.39zM95.665 353.486c-9.809-1.189-22.157-6.379-33.606-13.135-9.219-5.44-11.906-17.117-7.8-26.347 12.132-26.207 41.258-5.93 58.417 3.571 18.968 13.313 8.672 38.844-17.01 35.911z" fill="#000"/><path d="M288.794 311.265c40.15-80.011 181.978-58.593 185.792 33.544-1.116 14.575 9.356 28.844 23.608 28.671 12.034.075 22.435-9.48 23.443-22.591 6.156-56.101-34.608-79.577-20.615-90.723 51.928-59.375 140.992-39.267 176.284 15.884 51.572 92.504-46.684 173.073-139.933 156.219-31.21-.364-33.915 42.942-3.536 46.527 25.504 3.075 51.043 2.967 76.164-3.241 5.524-1.669 7.826.464 9.599 5.273 7.862 13.84 14.733 27.943 25.675 40.248 16.222 18.242 23.758 41.641 30.771 64.795 6.332 20.904 6.023 20.632-10.912 34.442-82.967 66.369-188.883 95.074-293.824 93.777-5.921-.037-7.878-2.142-8.947-7.558-10.651-57.305-23.854-114.138-35.735-171.134-.197-1.727 2.057-4.486 3.894-5.583 23.822-14.696 45.943-34.848 55.469-61.767 6.479-28.383-32.019-40.234-44.721-14.754-29.433 69.017-188.809 77.386-160.859-21.279 20.809-68.434 101.866-97.864 162.606-59.83 8.757 3.835 18.151 1.709 23.846-5.264 23.654-33.867-54.252-55.87-78.069-55.656z" fill="#fff"/><path d="M684.88 638.699c5.98 40.61-26.171 65.416-58.445 81.08-55.271 24.325-227.878 107.238-255.138 19.588 115.588.425 220.113-31.603 313.583-100.668z" fill="#fff"/></svg>